<?xml version="1.0" encoding="utf-8"?>
<!-- Generator: Adobe Illustrator 23.0.1, SVG Export Plug-In . SVG Version: 6.00 Build 0)  -->
<svg xmlns:xlink="http://www.w3.org/1999/xlink" version="1.1" id="settings-navigate-icons-svg"
     xmlns="http://www.w3.org/2000/svg" x="0px"
     y="0px"
     viewBox="0 0 512 512" style="enable-background:new 0 0 512 512;" xml:space="preserve">
    <g>
	<path style="fill:#ffffff" data="settings-account" class="settings-navigate-icons-svg" d="M28.1,427.8c-4.8,0-8.8-1.6-11.9-4.7s-4.7-7.1-4.7-11.9v-35.4c0-12.9,3.3-24.6,10-35.1
		c6.6-10.5,15.9-18.3,27.7-23.5c26.9-11.8,51.2-20.3,72.7-25.4c21.6-5.2,43.8-7.7,66.7-7.7s45,2.6,66.4,7.7
		c21.4,5.2,45.5,13.6,72.5,25.4c11.8,5.2,21.1,13,27.9,23.5c6.8,10.5,10.2,22.2,10.2,35.1v35.4c0,4.8-1.6,8.8-4.7,11.9
		c-3.1,3.1-7.1,4.7-11.9,4.7H28.1z M386.5,427.8c3.7-0.7,6.6-2.7,8.9-5.8c2.2-3.1,3.3-7.1,3.3-11.9v-34.3c0-23.2-5.9-42.3-17.7-57.3
		c-11.8-14.9-27.3-27-46.5-36.2c25.4,3,49.4,7.3,71.9,13c22.5,5.7,40.8,12.3,54.8,19.6c12.2,7,21.8,15.7,28.8,26
		c7,10.3,10.5,21.9,10.5,34.8v35.4c0,4.8-1.6,8.8-4.7,11.9s-7.1,4.7-11.9,4.7H386.5z M188.5,250.2c-24.3,0-44.3-7.7-59.7-23.2
		s-23.2-35.4-23.2-59.7s7.7-44.3,23.2-59.7s35.4-23.2,59.7-23.2s44.3,7.7,59.7,23.2s23.2,35.4,23.2,59.7s-7.7,44.3-23.2,59.7
		S212.9,250.2,188.5,250.2z M387.7,167.2c0,24.3-7.7,44.3-23.2,59.7s-35.4,23.2-59.7,23.2c-4.1,0-8.6-0.3-13.6-0.8
		c-5-0.6-9.5-1.6-13.6-3c8.9-9.2,15.6-20.6,20.2-34c4.6-13.5,6.9-28.5,6.9-45.1s-2.3-31.3-6.9-44c-4.6-12.7-11.3-24.4-20.2-35.1
		c4.1-1.1,8.6-2,13.6-2.8c5-0.7,9.5-1.1,13.6-1.1c24.3,0,44.3,7.7,59.7,23.2S387.7,142.9,387.7,167.2z M44.7,394.6h287.6v-18.8
		c0-5.9-1.8-11.6-5.3-17.1c-3.5-5.5-7.8-9.4-13-11.6c-26.6-11.8-48.9-19.7-66.9-23.8s-37.6-6.1-58.6-6.1s-40.7,2-58.9,6.1
		s-40.7,12-67.2,23.8c-5.2,2.2-9.4,6.1-12.7,11.6s-5,11.2-5,17.1V394.6z M188.5,217c14.4,0,26.3-4.7,35.7-14.1
		c9.4-9.4,14.1-21.3,14.1-35.7s-4.7-26.3-14.1-35.7c-9.4-9.4-21.3-14.1-35.7-14.1c-14.4,0-26.3,4.7-35.7,14.1
		c-9.4,9.4-14.1,21.3-14.1,35.7s4.7,26.3,14.1,35.7C162.2,212.3,174.1,217,188.5,217z M188.5,167.2L188.5,167.2L188.5,167.2
		L188.5,167.2L188.5,167.2L188.5,167.2L188.5,167.2L188.5,167.2L188.5,167.2z M188.5,317.1L188.5,317.1L188.5,317.1L188.5,317.1
		L188.5,317.1L188.5,317.1L188.5,317.1L188.5,317.1L188.5,317.1z"/>
</g>
</svg>
