<?xml version="1.0" encoding="utf-8"?>
<!-- Generator: Adobe Illustrator 23.0.1, SVG Export Plug-In . SVG Version: 6.00 Build 0)  -->
<svg version="1.1" id="Layer_1" xmlns="http://www.w3.org/2000/svg" xmlns:xlink="http://www.w3.org/1999/xlink" x="0px" y="0px"
	 viewBox="0 0 512 512" style="enable-background:new 0 0 512 512;" xml:space="preserve">
<style type="text/css">
	.st0{fill:#A0A0A0;}
</style>
<path class="st0" d="M314,256l150-150c16-16,16-42,0-58c-16-16-42-16-58,0L256,198L106,48c-16-16-42-16-58,0s-16,42,0,58l150,150
	L48,406c-16,16-16,42,0,58c16,16,42,16,58,0l150-150l150,150c16,16,42,16,58,0c16-16,16-42,0-58L314,256z"/>
</svg>
