<?xml version="1.0" encoding="utf-8"?>
<!-- Generator: Adobe Illustrator 23.0.1, SVG Export Plug-In . SVG Version: 6.00 Build 0)  -->
<svg version="1.1" id="Layer_1" xmlns="http://www.w3.org/2000/svg" xmlns:xlink="http://www.w3.org/1999/xlink" x="0px" y="0px"
	 viewBox="0 0 512 512" style="enable-background:new 0 0 512 512;" xml:space="preserve">
<style type="text/css">
	.st0{fill:#FFFFFF;}
</style>
<g>
	<path class="st0" d="M239.6,284.5H276V131.1h-36.4V284.5z M256,377.3c5.7,0,10.4-1.9,14.2-5.8c3.8-3.8,5.8-8.6,5.8-14.2
		c0-5.7-1.9-10.4-5.8-14.2s-8.6-5.8-14.2-5.8c-5.7,0-10.4,1.9-14.2,5.8c-3.8,3.8-5.8,8.6-5.8,14.2c0,5.7,1.9,10.4,5.8,14.2
		C245.6,375.3,250.3,377.3,256,377.3z M256,498.5c-34.4,0-66.3-6.2-95.8-18.5c-29.5-12.3-55.2-29.4-77-51.2s-38.9-47.5-51.2-77
		c-12.3-29.5-18.5-61.4-18.5-95.8c0-34,6.2-65.7,18.5-95.2c12.3-29.5,29.4-55.2,51.2-77s47.5-39,77-51.5s61.4-18.8,95.8-18.8
		c34,0,65.7,6.3,95.2,18.8s55.2,29.7,77,51.5c21.8,21.8,39,47.5,51.5,77c12.5,29.5,18.8,61.2,18.8,95.2c0,34.4-6.3,66.3-18.8,95.8
		c-12.5,29.5-29.7,55.2-51.5,77c-21.8,21.8-47.5,38.9-77,51.2C321.7,492.3,290,498.5,256,498.5z M256,256L256,256L256,256L256,256
		L256,256L256,256L256,256L256,256L256,256z M256,462.1c56.6,0,105.1-20.2,145.5-60.6s60.6-88.9,60.6-145.5s-20.2-105.1-60.6-145.5
		S312.6,49.9,256,49.9s-105.1,20.2-145.5,60.6S49.9,199.4,49.9,256s20.2,105.1,60.6,145.5S199.4,462.1,256,462.1z"/>
</g>
</svg>
