<?xml version="1.0" encoding="utf-8"?>
<!-- Generator: Adobe Illustrator 23.0.1, SVG Export Plug-In . SVG Version: 6.00 Build 0)  -->
<svg xmlns:xlink="http://www.w3.org/1999/xlink" version="1.1"
     xmlns="http://www.w3.org/2000/svg" x="0px"
     y="0px"
     viewBox="0 0 512 512" style="enable-background:new 0 0 512 512;" xml:space="preserve">
<style type="text/css">

</style>
    <g>
	<path style="fill:#FFFFFF;" data="settings-appearance" class="settings-navigate-icons-svg" d="M218.8,274.5H51.6c-5.4,0-9.8,1.8-13.3,5.3s-5.3,7.9-5.3,13.3v167.1c0,5.4,1.8,9.8,5.3,13.3
		c3.5,3.5,7.9,5.3,13.3,5.3h167.1c5.4,0,9.8-1.8,13.3-5.3c3.5-3.5,5.3-7.9,5.3-13.3V293.1c0-5.4-1.8-9.8-5.3-13.3
		C228.6,276.3,224.2,274.5,218.8,274.5z M200.3,441.7h-130v-117v-13h130L200.3,441.7L200.3,441.7z"/>
        <path style="fill:#FFFFFF;" data="settings-appearance" class="settings-navigate-icons-svg" d="M218.8,33.1H51.6c-5.4,0-9.8,1.8-13.3,5.3S33,46.3,33,51.7v167c0,5.4,1.8,9.8,5.3,13.3
		c3.5,3.5,7.9,5.3,13.3,5.3h167.1c5.4,0,9.8-1.8,13.3-5.3c3.5-3.5,5.3-7.9,5.3-13.3V51.6c0-5.4-1.8-9.8-5.3-13.3
		C228.6,34.8,224.2,33.1,218.8,33.1z M200.3,200.3h-130v-14.2V70.2h130L200.3,200.3L200.3,200.3z"/>
        <path style="fill:#FFFFFF;" data="settings-appearance" class="settings-navigate-icons-svg" d="M473.6,38.3c-3.5-3.5-7.9-5.3-13.3-5.3H293.1c-5.4,0-9.8,1.8-13.3,5.3s-5.3,7.9-5.3,13.3v167.1
		c0,5.4,1.8,9.8,5.3,13.3c3.5,3.5,7.9,5.3,13.3,5.3h167.1c5.4,0,9.8-1.8,13.3-5.3c3.5-3.5,5.3-7.9,5.3-13.3V51.6
		C478.9,46.3,477.1,41.9,473.6,38.3z M441.7,200.3h-130v-130h7h38.8h84.3V200.3z"/>
        <path style="fill:#FFFFFF;" data="settings-appearance" class="settings-navigate-icons-svg" d="M460.8,358.1h-65.6v-65c0-5.4-1.8-9.8-5.3-13.3s-7.9-5.3-13.3-5.3s-9.8,1.8-13.3,5.3
		c-3.5,3.5-5.3,7.7-5.3,12.7v65.6h-64.9c-5.4,0-9.8,1.8-13.3,5.3s-5.3,7.9-5.3,13.3c0,5.4,1.8,9.8,5.3,13.3
		c3.5,3.5,7.7,5.3,12.7,5.3h65.6v65c0,5.4,1.8,9.8,5.3,13.3c3.5,3.5,7.9,5.3,13.3,5.3c5.4,0,9.8-1.8,13.3-5.3
		c3.5-3.5,5.3-7.7,5.3-12.7v-65.6h65c5.4,0,9.8-1.8,13.3-5.3c3.5-3.5,5.3-7.9,5.3-13.3c0-5.4-1.8-9.8-5.3-13.3
		C470,359.9,465.8,358.1,460.8,358.1z"/>
</g>
</svg>
