<?xml version="1.0" encoding="utf-8"?>
<!-- Generator: Adobe Illustrator 23.0.1, SVG Export Plug-In . SVG Version: 6.00 Build 0)  -->
<svg version="1.1" id="Layer_1" xmlns="http://www.w3.org/2000/svg" xmlns:xlink="http://www.w3.org/1999/xlink" x="0px" y="0px"
	 viewBox="0 0 512 512" style="enable-background:new 0 0 512 512;" xml:space="preserve">
<style type="text/css">
	.st0{fill:#A0A0A0;}
</style>
<path class="st0" d="M-197.7,173.2h-404.6c-19.4,0-35.2-15.8-35.2-35.2v0c0-19.4,15.8-35.2,35.2-35.2h404.6
	c19.4,0,35.2,15.8,35.2,35.2v0C-162.5,157.4-178.3,173.2-197.7,173.2z"/>
<path class="st0" d="M437.4,48.7H74.6c-19.1,0-34.5,15.5-34.5,34.5v345.5c0,19.1,15.5,34.5,34.5,34.5h362.8
	c19.1,0,34.5-15.5,34.5-34.5V83.3C471.9,64.2,456.5,48.7,437.4,48.7z M402.8,117.8v276.4H109.2V117.8H402.8z"/>
</svg>
