<?xml version="1.0" encoding="utf-8"?>
<!-- Generator: Adobe Illustrator 23.0.1, SVG Export Plug-In . SVG Version: 6.00 Build 0)  -->
<svg version="1.1" id="Layer_1" xmlns="http://www.w3.org/2000/svg" xmlns:xlink="http://www.w3.org/1999/xlink" x="0px" y="0px"
	 viewBox="0 0 512 512" style="enable-background:new 0 0 512 512;" xml:space="preserve">
<style type="text/css">
	.st0{fill:#FFFFFF;}
</style>
<path class="st0" d="M47.4,246.4L47.4,246.4c8.9,8.9,23.2,8.9,32.1,0L233.3,92.6v372.7c0,12.5,10.2,22.7,22.7,22.7h0
	c12.5,0,22.7-10.2,22.7-22.7V92.6l153.8,153.8c8.9,8.9,23.2,8.9,32.1,0v0c8.9-8.9,8.9-23.2,0-32.1L273.7,23.4
	c-0.5-0.6-1-1.2-1.5-1.7h0c-1.8-1.8-3.9-3.3-6.1-4.3c-0.3-0.1-0.6-0.3-0.9-0.4c-0.3-0.1-0.6-0.2-0.9-0.4c-0.5-0.2-1.1-0.4-1.6-0.6
	c-0.1,0-0.1,0-0.2-0.1c-2-0.6-4.2-0.9-6.4-0.9h0c-3,0-5.9,0.6-8.5,1.6c-0.1,0-0.1,0-0.2,0.1c-0.6,0.2-1.1,0.5-1.6,0.8
	c-0.2,0.1-0.3,0.2-0.5,0.3c-0.4,0.2-0.9,0.5-1.3,0.8c-0.4,0.2-0.7,0.5-1.1,0.7c-0.2,0.2-0.4,0.3-0.6,0.5c-0.5,0.3-0.9,0.7-1.3,1.1
	c-0.1,0.1-0.2,0.2-0.3,0.2c-0.2,0.2-0.5,0.4-0.7,0.7v0c-0.5,0.5-1.1,1.1-1.5,1.7L47.4,214.3C38.5,223.2,38.5,237.5,47.4,246.4z"/>
</svg>
