<?xml version="1.0" encoding="utf-8"?>
<!-- Generator: Adobe Illustrator 23.0.1, SVG Export Plug-In . SVG Version: 6.00 Build 0)  -->
<svg version="1.1" id="Layer_1" xmlns="http://www.w3.org/2000/svg" xmlns:xlink="http://www.w3.org/1999/xlink" x="0px" y="0px"
	 viewBox="0 0 512 512" style="enable-background:new 0 0 512 512;" xml:space="preserve">
<style type="text/css">
	.st0{fill:#FFFFFF;}
</style>
<path class="st0" d="M261.1,42.9L261.1,42.9c-8.9,8.9-8.9,23.2,0,32.1l153.8,153.8H42.2c-12.5,0-22.7,10.2-22.7,22.7v0
	c0,12.5,10.2,22.7,22.7,22.7h372.7L261.1,428c-8.9,8.9-8.9,23.2,0,32.1h0c8.9,8.9,23.2,8.9,32.1,0l190.9-190.9
	c0.6-0.5,1.2-1,1.7-1.5v0c1.8-1.8,3.3-3.9,4.3-6.1c0.1-0.3,0.3-0.6,0.4-0.9c0.1-0.3,0.2-0.6,0.4-0.9c0.2-0.5,0.4-1.1,0.6-1.6
	c0-0.1,0-0.1,0.1-0.2c0.6-2,0.9-4.2,0.9-6.4v0c0-3-0.6-5.9-1.6-8.5c0-0.1,0-0.1-0.1-0.2c-0.2-0.6-0.5-1.1-0.8-1.6
	c-0.1-0.2-0.2-0.3-0.3-0.5c-0.2-0.4-0.5-0.9-0.8-1.3c-0.2-0.4-0.5-0.7-0.7-1.1c-0.2-0.2-0.3-0.4-0.5-0.6c-0.3-0.5-0.7-0.9-1.1-1.3
	c-0.1-0.1-0.2-0.2-0.2-0.3c-0.2-0.2-0.4-0.5-0.7-0.7h0c-0.5-0.5-1.1-1.1-1.7-1.5L293.2,42.9C284.3,34,270,34,261.1,42.9z"/>
</svg>
