<?xml version="1.0" encoding="utf-8"?>
<!-- Generator: Adobe Illustrator 23.0.1, SVG Export Plug-In . SVG Version: 6.00 Build 0)  -->
<svg xmlns:xlink="http://www.w3.org/1999/xlink" version="1.1" id="Layer_1" xmlns="http://www.w3.org/2000/svg" x="0px"
     y="0px"
     viewBox="0 0 512 512" style="enable-background:new 0 0 512 512;" xml:space="preserve">
<style type="text/css">

</style>
    <g>
	<path style="fill:#354260;" class="main-nav-bar-left-ico-svg" d="M256,373.2L256,373.2c9.7,0,17.6-7.9,17.6-17.6v-82.1h82.1c9.7,0,17.6-7.9,17.6-17.6l0,0
		c0-9.7-7.9-17.6-17.6-17.6h-82.1v-82.1c0-9.7-7.9-17.6-17.6-17.6l0,0c-9.7,0-17.6,7.9-17.6,17.6v82.1h-82.1
		c-9.7,0-17.6,7.9-17.6,17.6l0,0c0,9.7,7.9,17.6,17.6,17.6h82.1v82.1C238.4,365.3,246.3,373.2,256,373.2z M80.2,467
		c-9.4,0-17.6-3.5-24.6-10.6c-7-7-10.5-15.2-10.5-24.6V80.2c0-9.4,3.5-17.6,10.5-24.6S70.8,45,80.2,45h351.7
		c9.4,0,17.6,3.5,24.6,10.5s10.6,15.2,10.6,24.6v351.7c0,9.4-3.5,17.6-10.6,24.6c-7,7-15.2,10.6-24.6,10.6L80.2,467L80.2,467z
		 M80.2,431.8h351.7l0,0l0,0V80.2l0,0l0,0H80.2l0,0l0,0V431.8L80.2,431.8L80.2,431.8z M80.2,431.8L80.2,431.8L80.2,431.8V80.2l0,0
		l0,0l0,0l0,0V431.8L80.2,431.8L80.2,431.8z"/>
</g>
</svg>
