<?xml version="1.0" encoding="utf-8"?>
<!-- Generator: Adobe Illustrator 23.0.1, SVG Export Plug-In . SVG Version: 6.00 Build 0)  -->
<svg xmlns:xlink="http://www.w3.org/1999/xlink" version="1.1" id="Layer_1" xmlns="http://www.w3.org/2000/svg" x="0px"
     y="0px"
     viewBox="0 0 512 512" style="enable-background:new 0 0 512 512;" xml:space="preserve">
<style type="text/css">

</style>
    <g>
	<path style="fill:#354260;" class="main-nav-bar-left-ico-svg" d="M471.1,438.8c-11.6,0-20.9-7.7-20.9-17.2V55.7l0,0l0,0H120.6c-11.6,0-20.9-7.7-20.9-17.2V38
		c0-9.5,9.4-17.2,20.9-17.2h329.5c11.5,0,21.4,3.5,29.6,10.6c8.2,7.1,12.3,15.2,12.3,24.3v365.9C492,431.1,482.6,438.8,471.1,438.8
		L471.1,438.8z M67.1,438.2l149.6-52.5c0,0,0,0,0,0l148.9,52.5V124.6l0,0l0,0H67.1l0,0l0,0V438.2z M25.2,491.3V124.6
		c0-9.1,4.1-17.1,12.3-24s18.1-10.4,29.6-10.4h298.6c11.5,0,21.5,3.5,29.9,10.4c8.4,6.9,12.6,14.9,12.6,24v366.7L216.7,424
		L25.2,491.3z M67.1,124.6L67.1,124.6L67.1,124.6h298.6l0,0l0,0H216.7H67.1z"/>
</g>
    <path style="fill:#354260;" class="main-nav-bar-left-ico-svg" d="M236.5,191h-113c-9.7,0-17.5-7.8-17.5-17.5v0c0-9.7,7.8-17.5,17.5-17.5h113c9.7,0,17.5,7.8,17.5,17.5v0
	C254,183.2,246.2,191,236.5,191z"/>
</svg>
