<?xml version="1.0" encoding="utf-8"?>
<!-- Generator: Adobe Illustrator 23.0.1, SVG Export Plug-In . SVG Version: 6.00 Build 0)  -->
<svg xmlns:xlink="http://www.w3.org/1999/xlink" version="1.1" id="Layer_1" xmlns="http://www.w3.org/2000/svg" x="0px"
     y="0px"
     viewBox="0 0 512 512" style="enable-background:new 0 0 512 512;" xml:space="preserve">
<style type="text/css">

</style>
    <g>
	<path style="fill:#354260;" class="main-nav-bar-left-ico-svg" d="M46.9,436.8c-8.7,0-16.5-3.5-23.4-10.5c-7-7-10.5-14.8-10.5-23.4V109.1c0-8.7,3.5-16.5,10.5-23.4
		c7-7,14.8-10.5,23.4-10.5h158.8l33.9,33.9h191.5c8.7,0,16.5,3.5,23.4,10.5c7,7,10.5,14.8,10.5,23.4H224.9L191,109.1H46.9l0,0l0,0
		v293.8l0,0l0,0l57.6-226H499l-60.5,233.9c-2.3,9-6.4,15.6-12.4,19.8c-6,4.1-13.7,6.2-23.2,6.2H46.9z M82.5,402.9h323.2l47.5-192.1
		H130L82.5,402.9z M82.5,402.9L130,210.8L82.5,402.9z M46.9,143v-33.9l0,0l0,0V143z"/>
</g>
</svg>
