<?xml version="1.0" encoding="utf-8"?>
<!-- Generator: Adobe Illustrator 23.0.1, SVG Export Plug-In . SVG Version: 6.00 Build 0)  -->
<svg xmlns:xlink="http://www.w3.org/1999/xlink" version="1.1" id="Layer_1" xmlns="http://www.w3.org/2000/svg" x="0px"
     y="0px"
     viewBox="0 0 512 512" style="enable-background:new 0 0 512 512;" xml:space="preserve">
<style type="text/css">

</style>
    <g>
	<path style="fill:#354260;" class="main-nav-bar-left-ico-svg" d="M113.9,398.1c-8.7,0-16.4-3.3-23-9.8c-6.6-6.6-9.8-14.2-9.8-23V81.1c0-8.7,3.3-16.4,9.8-23
		c6.6-6.6,14.2-9.8,23-9.8h133.9l32.8,32.8h183.1c8.7,0,16.4,3.3,23,9.8c6.6,6.6,9.8,14.2,9.8,23v251.4c0,8.7-3.3,16.4-9.8,23
		c-6.6,6.6-14.2,9.8-23,9.8L113.9,398.1L113.9,398.1z M113.9,365.3h349.8l0,0l0,0V113.9l0,0l0,0H266.9l-32.8-32.8H113.9l0,0l0,0
		V365.3L113.9,365.3L113.9,365.3z M436.4,447.3c0,9.1-7.3,16.4-16.4,16.4H48.3c-8.7,0-16.4-3.3-23-9.8c-6.6-6.6-9.8-14.2-9.8-23
		V130.3c0-9.1,7.3-16.4,16.4-16.4l0,0c9.1,0,16.4,7.3,16.4,16.4v300.6l0,0l0,0H420C429,430.9,436.4,438.3,436.4,447.3L436.4,447.3z
		 M201.4,304.6h175.5c10.1,0,15.9-11.5,9.8-19.6L339,221.5c-4.9-6.5-14.7-6.5-19.6,0l-50.3,66.8l-33.4-36.4
		c-5.1-5.6-14-5.2-18.7,0.7l-25.3,32.2C185.4,292.9,191.2,304.6,201.4,304.6z M113.9,365.3L113.9,365.3L113.9,365.3V81.1l0,0l0,0
		v32.8l0,0l0,0V365.3L113.9,365.3L113.9,365.3z"/>
</g>
</svg>
