<?xml version="1.0" encoding="utf-8"?>
<!-- Generator: Adobe Illustrator 23.0.1, SVG Export Plug-In . SVG Version: 6.00 Build 0)  -->
<svg xmlns:xlink="http://www.w3.org/1999/xlink" version="1.1" id="Layer_1" xmlns="http://www.w3.org/2000/svg" x="0px"
	 y="0px"
	 viewBox="0 0 512 512" style="enable-background:new 0 0 512 512;" xml:space="preserve">
<style type="text/css">

</style>
	<g>
	<path style="fill:#354260;" class="main-nav-bar-left-ico-svg" d="M199.4,469l-8.5-53.6c-7.4-2.7-15.1-6.4-23.3-11c-8.1-4.7-15.3-9.5-21.5-14.5l-49.2,22.5c-11,5-24,0.8-30-9.7
		L33.6,344c-5.8-10.3-3-23.3,6.5-30.3L86.2,280c-0.8-3.5-1.3-7.5-1.5-11.9c-0.2-4.5-0.3-8.4-0.3-11.9s0.1-7.5,0.3-11.9
		c0.2-4.5,0.7-8.4,1.5-11.9l-46.1-33.7c-9.5-7-12.4-20-6.5-30.3l33.3-58.7c6-10.5,19-14.7,30-9.7l49.2,22.5
		c6.2-5,13.4-9.9,21.5-14.5c8.1-4.7,15.9-8.1,23.3-10.5l8.5-54.2c1.8-11.3,11.6-19.7,23-19.7h67.2c11.5,0,21.2,8.3,23,19.7l8.5,53.6
		c7.4,2.7,15.2,6.3,23.6,10.8c8.3,4.5,15.4,9.4,21.2,14.8l49.2-22.5c11-5,24-0.8,30,9.7l33.2,58.5c5.9,10.4,3,23.5-6.7,30.5
		L425.9,231c0.8,3.9,1.3,8,1.5,12.5s0.3,8.6,0.3,12.5s-0.1,7.9-0.3,12.2s-0.7,8.3-1.5,12.2l45.9,33.1c9.6,7,12.5,20.1,6.6,30.4
		l-33.2,58.6c-6,10.5-19,14.7-30,9.7L366,389.7c-6.2,5-13.3,10-21.2,14.8c-7.9,4.8-15.8,8.4-23.6,10.8l-8.5,53.6
		c-1.8,11.3-11.6,19.7-23,19.7h-67.2C211,488.6,201.2,480.3,199.4,469z M256,331.6c20.9,0,38.8-7.4,53.5-22.1s22.1-32.6,22.1-53.5
		s-7.4-38.8-22.1-53.5S277,180.4,256,180.4c-20.9,0-38.8,7.4-53.5,22.1c-14.7,14.7-22.1,32.6-22.1,53.5s7.4,38.8,22.1,53.5
		C217.3,324.2,235.1,331.6,256,331.6z M256,296.7c-11.2,0-20.8-4-28.8-11.9c-7.6-7.6-11.9-18-11.9-28.8c0-11.2,4-20.8,11.9-28.8
		c7.6-7.6,18-11.9,28.8-11.9c11.2,0,20.8,4,28.8,11.9c7.6,7.6,11.9,18,11.9,28.8c0,11.2-4,20.8-11.9,28.8
		C277.2,292.4,266.8,296.7,256,296.7z M256,256L256,256L256,256L256,256L256,256L256,256L256,256L256,256L256,256L256,256L256,256
		L256,256L256,256L256,256L256,256L256,256L256,256z M256,453.7L256,453.7c14.6,0,26.9-10.9,28.8-25.4l5-39.7
		c12.8-3.1,24.9-7.9,36.3-14.5s21.8-14.5,31.1-23.8l61.6,26.8l23.3-41.9L387.5,295c1.6-6.6,2.8-13.1,3.8-19.5s1.5-12.9,1.5-19.5
		s-0.4-13.1-1.2-19.5c-0.8-6.4-2.1-12.9-4.1-19.5l35.6-26.2c10.9-8,14.1-22.8,7.6-34.6l0,0c-6.7-12-21.4-17.1-34.1-11.6l-39.4,17.1
		c-8.9-10.1-19-18.5-30.2-25.3s-23.7-11.1-37.2-13.1l-5.2-41.7c-1.7-13.4-13.1-23.5-26.6-23.5h-3.9c-13.5,0-24.9,10.1-26.6,23.5
		l-5.2,41.7c-13.2,2.7-25.5,7.4-36.9,14c-11.4,6.6-21.6,14.7-30.5,24.4l-39.4-17.1c-12.6-5.5-27.4-0.5-34.1,11.6l0,0
		c-6.6,11.8-3.3,26.6,7.6,34.6l35.6,26.2c-1.6,6.6-2.8,13.1-3.8,19.5s-1.5,12.9-1.5,19.5c0,6.6,0.5,13.1,1.5,19.5
		c1,6.4,2.2,12.9,3.8,19.5L89,321.1c-10.9,8-14.1,22.8-7.6,34.6l0,0c6.7,12,21.4,17.1,34.1,11.6l39.4-17.1
		c9.3,9.3,19.7,17.3,31.1,23.8s23.6,11.4,36.3,14.5l5,39.7C229.1,442.8,241.4,453.7,256,453.7z"/>
</g>
</svg>
