<?xml version="1.0" encoding="utf-8"?>
<!-- Generator: Adobe Illustrator 23.0.1, SVG Export Plug-In . SVG Version: 6.00 Build 0)  -->
<svg version="1.1" id="Layer_1" xmlns="http://www.w3.org/2000/svg" xmlns:xlink="http://www.w3.org/1999/xlink" x="0px" y="0px"
	 viewBox="0 0 4228 1176" style="enable-background:new 0 0 4228 1176;" xml:space="preserve">
<style type="text/css">
	.st0{fill:#F79764;}
	.st1{fill:#F13CEB;}
	.st2{fill:#554CFF;}
	.st3{fill:#282A52;}
	.st4{fill:url(#SVGID_1_);}
	.st5{fill:url(#SVGID_2_);}
	.st6{fill:url(#SVGID_3_);}
	.st7{fill:url(#SVGID_4_);}
	.st8{fill:url(#SVGID_5_);}
	.st9{fill:url(#SVGID_6_);}
	.st10{fill:#FFFFFF;}
</style>
<rect x="2071" y="-6914" class="st0" width="1168" height="1168"/>
<rect x="-1622" y="-6869" class="st1" width="1168" height="1168"/>
<rect x="301" y="-6914" class="st2" width="1168" height="1168"/>
<image style="overflow:visible;" width="1600" height="1200" xlink:href="../../Downloads/image_processing20220322-5604-165lx1e.jpg"  transform="matrix(1.6494 0 0 1.6494 -5935 -7725)">
</image>
<g>
	<path class="st3" d="M-1436.1,2122.5h-1873.7c-264.9,0-479.6-214.7-479.6-479.6V-230.9c0-264.9,214.7-479.6,479.6-479.6h1873.7
		c264.9,0,479.6,214.7,479.6,479.6v1873.7C-956.5,1907.8-1171.2,2122.5-1436.1,2122.5z"/>
	<g>
		<linearGradient id="SVGID_1_" gradientUnits="userSpaceOnUse" x1="-3021.9316" y1="469.925" x2="-1449.5626" y2="469.925">
			<stop  offset="0" style="stop-color:#F79764"/>
			<stop  offset="0.492" style="stop-color:#F13CEB"/>
			<stop  offset="1" style="stop-color:#554CFF"/>
		</linearGradient>
		<path class="st4" d="M-2235.7-316.3c-434.2,0-786.2,352-786.2,786.2s352,786.2,786.2,786.2s786.2-352,786.2-786.2
			S-1801.5-316.3-2235.7-316.3z M-2235.7,889.4c-231.7,0-419.4-187.8-419.4-419.4s187.8-419.4,419.4-419.4s419.4,187.8,419.4,419.4
			S-2004.1,889.4-2235.7,889.4z"/>
	</g>
	<g>
		<linearGradient id="SVGID_2_" gradientUnits="userSpaceOnUse" x1="-3297.5354" y1="1013.4465" x2="-2320.2949" y2="1013.4465">
			<stop  offset="0" style="stop-color:#F79764"/>
			<stop  offset="0.492" style="stop-color:#F13CEB"/>
			<stop  offset="1" style="stop-color:#554CFF"/>
		</linearGradient>
		<path class="st5" d="M-3021.9,469.9c0-59.2,6.6-116.9,19-172.3l-0.3-0.1l-294.3,1431.8h298c244,0,454.4-171.4,503.8-410.3
			l20.7-100C-2792.2,1117.8-3021.9,820.7-3021.9,469.9z"/>
	</g>
</g>
<g>
	<path class="st3" d="M-1885.7-2712h-974.6c-66.1,0-119.7-53.6-119.7-119.7v-974.6c0-66.1,53.6-119.7,119.7-119.7h974.6
		c66.1,0,119.7,53.6,119.7,119.7v974.6C-1766-2765.6-1819.6-2712-1885.7-2712z"/>
	<g>
		<linearGradient id="SVGID_3_" gradientUnits="userSpaceOnUse" x1="-2668.5" y1="-3426.5" x2="-1952.5" y2="-3426.5">
			<stop  offset="0" style="stop-color:#F79764"/>
			<stop  offset="0.492" style="stop-color:#F13CEB"/>
			<stop  offset="1" style="stop-color:#554CFF"/>
		</linearGradient>
		<path class="st6" d="M-2310.5-3784.5c-197.7,0-358,160.3-358,358c0,197.7,160.3,358,358,358s358-160.3,358-358
			C-1952.5-3624.2-2112.8-3784.5-2310.5-3784.5z M-2310.5-3235.5c-105.5,0-191-85.5-191-191s85.5-191,191-191s191,85.5,191,191
			S-2205-3235.5-2310.5-3235.5z"/>
	</g>
	<g>
		<linearGradient id="SVGID_4_" gradientUnits="userSpaceOnUse" x1="-2794" y1="-3179" x2="-2349" y2="-3179">
			<stop  offset="0" style="stop-color:#F79764"/>
			<stop  offset="0.492" style="stop-color:#F13CEB"/>
			<stop  offset="1" style="stop-color:#554CFF"/>
		</linearGradient>
		<path class="st7" d="M-2668.5-3426.5c0-27,3-53.2,8.6-78.5l-0.1,0l-134,652h135.7c111.1,0,206.9-78,229.4-186.8l9.4-45.6
			C-2563.9-3131.5-2668.5-3266.8-2668.5-3426.5z"/>
	</g>
</g>
<g>
	<g>
		<g>
			<linearGradient id="SVGID_5_" gradientUnits="userSpaceOnUse" x1="241.4761" y1="486.7985" x2="909.2622" y2="486.7985">
				<stop  offset="0" style="stop-color:#F79764"/>
				<stop  offset="0.492" style="stop-color:#F13CEB"/>
				<stop  offset="1" style="stop-color:#554CFF"/>
			</linearGradient>
			<path class="st8" d="M575.4,152.9c-184.4,0-333.9,149.5-333.9,333.9S391,820.7,575.4,820.7s333.9-149.5,333.9-333.9
				S759.8,152.9,575.4,152.9z M575.4,664.9c-98.4,0-178.1-79.8-178.1-178.1S477,308.7,575.4,308.7s178.1,79.8,178.1,178.1
				S673.8,664.9,575.4,664.9z"/>
		</g>
		<g>
			<linearGradient id="SVGID_6_" gradientUnits="userSpaceOnUse" x1="124.427" y1="717.6323" x2="539.4617" y2="717.6323">
				<stop  offset="0" style="stop-color:#F79764"/>
				<stop  offset="0.492" style="stop-color:#F13CEB"/>
				<stop  offset="1" style="stop-color:#554CFF"/>
			</linearGradient>
			<path class="st9" d="M241.5,486.8c0-25.1,2.8-49.6,8.1-73.2l-0.1,0l-125,608.1H251c103.6,0,193-72.8,213.9-174.3l8.8-42.5
				C339,761.9,241.5,635.8,241.5,486.8z"/>
		</g>
	</g>
	<path class="st10" d="M1160.8,840.1c-59.9,0-103-16.8-129.2-50.4c-26.3-33.6-34.4-82.3-24.4-146.2l72.8-451.1
		c7.3-50.6,36.3-75.8,86.8-75.8c23.3,0,40.4,7.8,51.4,23.5c11,15.6,14.1,37.1,9.5,64.4l-69.9,437.1c-4,26.6-1.5,46.1,7.5,58.4
		c9,12.3,22.8,18.5,41.4,18.5c6.6,0,12.1-0.3,16.5-1c4.3-0.7,8.5-1,12.5-1c8,0,14.3,2.7,19,8c4.6,5.3,7,15.6,7,30.9
		c0,24-4.7,41.8-14,53.4c-9.3,11.6-20.3,19.8-32.9,24.4c-6,2-14.1,3.6-24.4,5C1179.9,839.5,1170.1,840.1,1160.8,840.1z
		 M1479.1,840.1c-30.6,0-58.6-7.2-83.8-21.5c-25.3-14.3-45.3-33.1-59.9-56.4c-14.6-23.3-22-48.6-22-75.8
		c0-51.9,22.1-89.6,66.4-113.3c44.2-23.6,113.6-35.4,208.1-35.4h67.9l2-13c4.6-27.3-0.2-48.2-14.5-62.9c-14.3-14.6-38.4-22-72.3-22
		c-20.6,0-40.8,2-60.4,6c-19.6,4-40.1,10.6-61.4,20c-18.6,7.3-34.6,7.7-47.9,1c-13.3-6.6-22.3-16.8-26.9-30.4
		c-4.7-13.6-3.3-27.6,4-41.9c7.3-14.3,22.3-25.8,44.9-34.4c28.6-10.6,57.2-18.5,85.8-23.5c28.6-5,56.2-7.5,82.8-7.5
		c55.9,0,99.8,10.3,131.7,30.9c31.9,20.6,53.5,48.4,64.9,83.3c11.3,34.9,13.3,74,6,117.3l-31.9,202.6c-7.3,49.9-34.3,74.8-80.8,74.8
		c-22,0-38.3-6.8-48.9-20.5c-10.6-13.6-14-33.8-10-60.4c-16,28.6-36.6,49.6-61.9,62.9C1535.6,833.5,1508.3,840.1,1479.1,840.1z
		 M1530,739.3c28.6,0,52.7-8.8,72.3-26.4c19.6-17.6,31.8-41.4,36.4-71.4l5-25.9h-52.9c-48.6,0-82.8,4.5-102.8,13.5
		c-20,9-29.9,24.8-29.9,47.4c0,20,6.8,35.4,20.5,46.4C1492.2,733.9,1509.3,739.3,1530,739.3z M1968.1,1017.8
		c-28.6,0-47.4-9.3-56.4-27.9c-9-18.6-6.2-39.6,8.5-62.9l76.8-124.7L1894.2,433c-8.7-29.9-6.3-54.4,7-73.3
		c13.3-19,33.6-28.4,60.9-28.4c20.6,0,36.3,5,46.9,15c10.6,10,18.6,27.6,24,52.9l59.9,251.5l151.7-265.4
		c10.6-19.3,22-33.1,33.9-41.4c12-8.3,27.6-12.5,46.9-12.5c28.6,0,47.7,9.2,57.4,27.4c9.6,18.3,7.5,39.4-6.5,63.4l-326.3,541.9
		c-11.3,19.3-23,33.1-34.9,41.4C2003,1013.6,1987.4,1017.8,1968.1,1017.8z M2620.7,1019.8c-38.6,0-76-4-112.3-12
		c-36.3-8-67.7-19-94.3-32.9c-17.3-9.3-27.9-21.3-31.9-35.9c-4-14.6-2.8-28.6,3.5-41.9c6.3-13.3,16.3-23,29.9-28.9
		c13.6-6,29.4-4.3,47.4,5c20,10,41.6,18.1,64.9,24.4c23.3,6.3,46.9,9.5,70.9,9.5c37.9,0,68.7-8,92.3-24c23.6-16,38.4-42.3,44.4-78.8
		l11-62.9c-16.6,24.6-38.8,43.4-66.4,56.4c-27.6,13-57.4,19.5-89.3,19.5c-59.2,0-106.8-17.8-142.7-53.4
		c-35.9-35.6-53.9-85-53.9-148.2c0-51.9,10.3-99.6,30.9-143.2c20.6-43.6,49.7-78.3,87.3-104.3c37.6-25.9,81.3-38.9,131.2-38.9
		c35.3,0,66.2,7.3,92.8,22c26.6,14.6,46.6,35.9,59.9,63.9l1-11c7.3-48.6,35.9-72.8,85.8-72.8c22.6,0,39.2,7.7,49.9,23
		c10.6,15.3,13.6,36.9,9,64.9l-59.9,377.2c-10.6,71.2-37.8,126.2-81.3,165.2C2757.3,1000.3,2697.2,1019.8,2620.7,1019.8z
		 M2640.7,704.4c27.3,0,50.4-7.6,69.4-23c19-15.3,33.6-35.4,43.9-60.4c10.3-24.9,15.5-52,15.5-81.3c0-29.9-8.3-53.7-24.9-71.4
		c-16.6-17.6-40.3-26.4-70.9-26.4c-27.3,0-50.4,7.5-69.4,22.5c-19,15-33.4,34.9-43.4,59.9c-10,24.9-15,52.4-15,82.3
		c0,29.9,8.1,53.7,24.4,71.4C2586.6,695.6,2610.1,704.4,2640.7,704.4z M3260.4,840.1c-51.2,0-95.8-9.5-133.7-28.4
		c-37.9-19-67.2-45.2-87.8-78.8c-20.6-33.6-30.9-73-30.9-118.3c0-55.9,11.8-105.3,35.4-148.2c23.6-42.9,56.2-76.5,97.8-100.8
		c41.6-24.3,89-36.4,142.2-36.4c55.2,0,99.1,12.1,131.7,36.4c32.6,24.3,54.9,55.6,66.9,93.8c12,38.3,15.6,78.7,11,121.2
		c-2,15.3-6.3,25.1-13,29.4c-6.7,4.3-15.6,6.5-26.9,6.5h-305.4c0.7,35.3,12,62.5,33.9,81.8c22,19.3,53.2,28.9,93.8,28.9
		c17.3,0,36.1-2,56.4-6c20.3-4,38.4-10,54.4-18c18.6-9.3,34.1-11.1,46.4-5.5c12.3,5.7,20.5,15.1,24.4,28.4c4,13.3,3.1,27.1-2.5,41.4
		c-5.7,14.3-16.8,25.8-33.4,34.4c-23.3,13.3-49.6,23-78.8,28.9C3312.9,837.1,3285.6,840.1,3260.4,840.1z M3282.3,429
		c-35.9,0-63.9,10.8-83.8,32.4c-20,21.6-33.3,47.4-39.9,77.3h217.5c2-31.3-4.5-57.4-19.5-78.3C3341.7,439.5,3316.9,429,3282.3,429z
		 M3616.6,836.1c-23.3,0-40.4-7.6-51.4-23c-11-15.3-14.1-36.9-9.5-64.9l53.9-342.3c7.3-49.9,35.9-74.8,85.8-74.8
		c22.6,0,39.4,6.8,50.4,20.5c11,13.6,14.1,33.8,9.5,60.4v2c35.9-56.5,91.1-84.8,165.7-84.8c53.2,0,94,16.6,122.2,49.9
		c28.3,33.3,36.8,86.2,25.4,158.7l-35.9,223.5c-7.3,49.9-36.3,74.8-86.8,74.8c-23.3,0-40.4-7.6-51.4-23
		c-11-15.3-14.5-36.9-10.5-64.9l32.9-207.6c10.6-63.2-9.7-94.8-60.9-94.8c-33.9,0-61.2,10.8-81.8,32.4
		c-20.6,21.6-33.9,51.4-39.9,89.3l-30.9,193.6C3696.1,811.2,3667.2,836.1,3616.6,836.1z"/>
</g>
</svg>
