<?xml version="1.0" encoding="utf-8"?>
<!-- Generator: Adobe Illustrator 23.0.1, SVG Export Plug-In . SVG Version: 6.00 Build 0)  -->
<svg xmlns:xlink="http://www.w3.org/1999/xlink" version="1.1" id="Layer_1" xmlns="http://www.w3.org/2000/svg" x="0px"
     y="0px"
     viewBox="0 0 512 512" style="enable-background:new 0 0 512 512;" xml:space="preserve">
<style type="text/css">
</style>
    <g>
	<path style="fill:#FFFFFF;" data="settings-security" class="settings-navigate-icons-svg" d="M256,12.3c30.6,0,56.6,10.7,78,32.2s32.2,47.5,32.2,78v55.7h40.6c9.7,0,17.9,3.4,24.7,10.2s10.2,15,10.2,24.7
		v251.8c0,9.7-3.4,17.9-10.2,24.7c-6.8,6.8-15,10.2-24.7,10.2H105.1c-9.7,0-17.9-3.4-24.7-10.2c-6.8-6.8-10.2-15-10.2-24.7V213.1
		c0-9.7,3.4-17.9,10.2-24.7c6.8-6.8,15-10.2,24.7-10.2h40.6v-55.7c0-30.6,10.7-56.6,32.2-78S225.4,12.3,256,12.3z M256,47.1
		c-20.9,0-38.7,7.4-53.4,22.1c-14.7,14.7-22.1,32.5-22.1,53.4v55.7h150.9v-55.7c0-20.9-7.4-38.7-22.1-53.4S276.9,47.1,256,47.1z
		 M105.1,464.9h301.7l0,0l0,0V213.1l0,0l0,0H105.1l0,0l0,0V464.9L105.1,464.9L105.1,464.9z M256,294.3c-12.4,0-22.9,4.7-31.6,14.2
		s-13.1,20-13.1,31.6c0,12,4.4,22.2,13.1,30.8c8.7,8.5,19.2,12.8,31.6,12.8c12.4,0,22.9-4.3,31.6-12.8c8.7-8.5,13.1-18.8,13.1-30.8
		c0-11.6-4.4-22.1-13.1-31.6C278.9,299,268.4,294.3,256,294.3z M105.1,213.1L105.1,213.1L105.1,213.1v251.8l0,0l0,0l0,0l0,0V213.1
		L105.1,213.1L105.1,213.1z"/>
</g>
</svg>
