<?xml version="1.0" encoding="utf-8"?>
<!-- Generator: Adobe Illustrator 23.0.1, SVG Export Plug-In . SVG Version: 6.00 Build 0)  -->
<svg version="1.1" id="Layer_1" xmlns="http://www.w3.org/2000/svg" xmlns:xlink="http://www.w3.org/1999/xlink" x="0px" y="0px"
	 viewBox="0 0 512 512" style="enable-background:new 0 0 512 512;" xml:space="preserve">
<style type="text/css">
	.st0{fill:#ABABAB;}
</style>
<path class="st0" d="M285,256l132.5-132.5c8-8,8-21,0-29s-21-8-29,0L256,227L123.5,94.5c-8-8-21-8-29,0s-8,21,0,29L227,256
	L94.5,388.5c-8,8-8,21,0,29s21,8,29,0L256,285l132.5,132.5c8,8,21,8,29,0s8-21,0-29L285,256z"/>
</svg>
