<?xml version="1.0" encoding="utf-8"?>
<!-- Generator: Adobe Illustrator 23.0.1, SVG Export Plug-In . SVG Version: 6.00 Build 0)  -->
<svg version="1.1" id="Layer_1" xmlns="http://www.w3.org/2000/svg" xmlns:xlink="http://www.w3.org/1999/xlink" x="0px" y="0px"
	 viewBox="0 0 512 512" style="enable-background:new 0 0 512 512;" xml:space="preserve">
<style type="text/css">
	.st0{fill:#FFFFFF;}
</style>
<g>
	<path class="st0" d="M235.2,352.1l139-143.9c7.2-7.4,7.1-19.2-0.1-26.5l-0.3-0.3c-7.5-7.6-19.7-7.5-27.1,0.1L221.5,311.1L165,252.6
		c-7.5-7.7-19.8-7.7-27.3,0l0,0c-7.1,7.3-7.1,18.9,0,26.3l70.2,73.2C215.3,359.8,227.7,359.8,235.2,352.1z M256,498.3
		c-33.1,0-63.9-6.2-92.4-18.5c-28.5-12.3-53.2-29.4-74.3-51.2s-37.5-47.4-49.4-76.9C28,322.2,22.1,290.3,22.1,256
		c0-33.9,5.9-65.6,17.8-95.1c11.9-29.5,28.4-55.1,49.4-76.9s45.8-39,74.3-51.5s59.3-18.8,92.4-18.8c32.8,0,63.4,6.3,91.8,18.8
		C376.3,45,401,62.2,422.1,84s37.6,47.4,49.7,76.9c12.1,29.5,18.1,61.2,18.1,95.1c0,34.3-6,66.2-18.1,95.7
		c-12.1,29.5-28.7,55.1-49.7,76.9s-45.8,38.9-74.3,51.2C319.4,492.1,288.8,498.3,256,498.3z M256,256L256,256L256,256L256,256
		L256,256L256,256L256,256L256,256L256,256z M256,461.9c56.5,0,103.8-19.7,141.8-59s57-88.3,57-146.9s-19-107.5-57-146.9
		s-85.3-59-141.8-59s-103.8,19.7-141.8,59s-57,88.3-57,146.9s19,107.5,57,146.9S199.5,461.9,256,461.9z"/>
</g>
</svg>
