<?xml version="1.0" encoding="utf-8"?>
<!-- Generator: Adobe Illustrator 23.0.1, SVG Export Plug-In . SVG Version: 6.00 Build 0)  -->
<svg version="1.1" id="Layer_1" xmlns="http://www.w3.org/2000/svg" xmlns:xlink="http://www.w3.org/1999/xlink" x="0px" y="0px"
	 viewBox="0 0 512 512" style="enable-background:new 0 0 512 512;" xml:space="preserve">
<style type="text/css">
	.st0{fill:#ABABAB;}
</style>
<g>
	<path class="st0" d="M127.2,196.2L239,84.4v270.9c0,9.1,7.4,16.5,16.5,16.5c9.1,0,16.5-7.4,16.5-16.5V84.4l111.8,111.8
		c6.4,6.4,16.9,6.4,23.3,0c6.4-6.4,6.4-16.9,0-23.3L268.4,34.1c-0.3-0.4-0.7-0.8-1.1-1.2h0c-1.9-1.9-4.1-3.2-6.5-4
		c-0.1,0-0.3-0.1-0.4-0.1c-0.2-0.1-0.4-0.1-0.6-0.2c-1.3-0.4-2.8-0.6-4.2-0.6c-1.6,0-3.2,0.2-4.6,0.7c0,0-0.1,0-0.1,0
		c-0.3,0.1-0.7,0.2-1,0.3c-0.2,0.1-0.4,0.1-0.6,0.2c-0.2,0.1-0.3,0.2-0.5,0.2c-0.3,0.2-0.7,0.3-1,0.5c0,0,0,0,0,0
		c-1.4,0.7-2.7,1.7-3.8,2.8c-0.4,0.4-0.8,0.8-1.1,1.2L103.9,172.9c-6.4,6.4-6.4,16.9,0,23.3C110.3,202.6,120.8,202.6,127.2,196.2z"
		/>
	<path class="st0" d="M486.5,473.8c0-1.1-0.1-2.1-0.3-3.1V300.6c0-9.1-7.4-16.5-16.5-16.5h0c-9.1,0-16.5,7.4-16.5,16.5v156.7H58.6
		V300.6c0-9.1-7.4-16.5-16.5-16.5s-16.5,7.4-16.5,16.5v171.2c-0.1,0.7-0.1,1.3-0.1,2c0,4.6,1.9,8.7,4.9,11.7c3,3,7.1,4.9,11.7,4.9
		c0.7,0,1.3-0.1,2-0.1l423.6,0c0.7,0.1,1.3,0.1,2,0.1h0c2.4,0,4.6-0.5,6.6-1.4C482.3,486.6,486.5,480.7,486.5,473.8z"/>
</g>
</svg>
